<?xml version="1.0" encoding="iso-8859-1"?>
<!-- Generator: Adobe Illustrator 19.0.0, SVG Export Plug-In . SVG Version: 6.00 Build 0)  -->
<svg version="1.1" id="Layer_1" xmlns="http://www.w3.org/2000/svg" xmlns:xlink="http://www.w3.org/1999/xlink" x="0px" y="0px"
	 viewBox="0 0 509.287 509.287" style="enable-background:new 0 0 509.287 509.287;" xml:space="preserve">
<circle style="fill:#F0582F;" cx="254.644" cy="254.644" r="254.644"/>
<path style="fill:#F1F3F7;" d="M422.485,129.187l-47.47,47.47l-55.269-55.269l47.47-47.47c-24.074-5.425-50.183,1.017-69.171,19.666
	c-19.327,19.327-25.77,46.792-18.988,71.544L101.044,325.171c-20.683,18.649-21.701,50.861-1.695,70.527
	c19.666,19.666,51.878,18.988,70.527-1.695L329.24,217.007c25.091,7.46,53.574,1.356,73.24-18.649
	C421.468,179.709,427.91,153.261,422.485,129.187z M151.566,379.762c-10.172,10.172-26.448,10.172-36.281,0
	c-10.172-10.172-10.172-26.109,0-36.281s26.448-10.172,36.281,0C161.738,353.653,161.738,369.928,151.566,379.762z"/>
<path style="fill:#FBD303;" d="M159.364,180.387l223.449,223.449c10.85,10.85,28.143,10.85,38.654,0
	c10.85-10.85,10.85-28.143,0-38.654L198.019,141.732L159.364,180.387z"/>
<path style="fill:#646B79;" d="M232.943,70.527l-69.51,26.448c-1.017,0.339-2.034,1.017-2.713,2.034l-79.343,87.142
	c-2.713,2.713-2.374,7.121,0.339,9.833l34.924,34.924c2.713,2.713,7.121,2.713,9.833,0.339l87.481-79.343
	c0.678-0.678,1.356-1.695,2.034-2.713l26.448-69.51C244.472,73.918,238.707,68.154,232.943,70.527z"/>
<g>
</g>
<g>
</g>
<g>
</g>
<g>
</g>
<g>
</g>
<g>
</g>
<g>
</g>
<g>
</g>
<g>
</g>
<g>
</g>
<g>
</g>
<g>
</g>
<g>
</g>
<g>
</g>
<g>
</g>
</svg>
