<svg xmlns="http://www.w3.org/2000/svg" xmlns:xlink="http://www.w3.org/1999/xlink" x="0px" y="0px" width="16px" height="16px" viewBox="0 0 16 16"><g  transform="translate(0, 0)">
<path fill="#0c090d" d="M8,0C3.6,0,0,3.6,0,8c0,4.4,3.6,8,8,8s8-3.6,8-8C16,3.6,12.4,0,8,0z M8,10c-1.1,0-2-0.9-2-2c0-1.1,0.9-2,2-2
	s2,0.9,2,2C10,9.1,9.1,10,8,10z M8,2c0.9,0,1.8,0.2,2.6,0.6L9,4.2C8.3,3.9,7.7,3.9,7,4.2L5.4,2.6C6.2,2.2,7.1,2,8,2z M2,8
	c0-0.9,0.2-1.8,0.6-2.6L4.2,7C3.9,7.7,3.9,8.3,4.2,9l-1.6,1.6C2.2,9.8,2,8.9,2,8z M8,14c-0.9,0-1.8-0.2-2.6-0.6L7,11.8
	c0.8,0.2,1.3,0.2,2.1,0l1.6,1.6C9.8,13.8,8.9,14,8,14z M13.4,10.6L11.8,9c0.2-0.8,0.2-1.3,0-2.1l1.6-1.6C13.8,6.2,14,7.1,14,8
	C14,8.9,13.8,9.8,13.4,10.6z"/></g>
</svg>
